<?xml version="1.0" encoding="utf-8"?>
<!-- Generator: Adobe Illustrator 26.5.0, SVG Export Plug-In . SVG Version: 6.00 Build 0)  -->
<svg width="64" height="64" version="1.1" id="Слой_1" xmlns="http://www.w3.org/2000/svg" xmlns:xlink="http://www.w3.org/1999/xlink" x="0px" y="0px"
	 viewBox="0 0 249.71 210.75" style="enable-background:new 0 0 249.71 210.75;" xml:space="preserve">
<style type="text/css">
	.st0{fill:url(#SVGID_1_);}
	.st1{fill:url(#SVGID_00000167373784945568465360000007188766138710748577_);}
</style>
<linearGradient id="SVGID_1_" gradientUnits="userSpaceOnUse" x1="25.8394" y1="105.6299" x2="222.6388" y2="104.8375">
	<stop  offset="3.973789e-04" style="stop-color:#D47BF9"/>
	<stop  offset="0.7632" style="stop-color:#351DD7"/>
</linearGradient>
<path class="st0" d="M98.62,94.05c2.52-8.13,6.09-27.04,6.35-35.32c0.73-22.46-4.35-32.13-10.94-41.41C87.46,8.05,77.77,0,62.16,0
	C46.14,0,33.2,2.55,23.06,13.1C9.65,27.06,1.59,49.89,0.12,73.86c-2.77,45.01,44.54,147.67,129.9,135.97
	c21.05-2.89,32.36-15.71,36.53-20.07c15.97-16.71,21.93-33.26,24.85-41.37c7.98-22.2,12.08-48.57-10.57-50.53
	c-19.35-1.67-36.11,33.43-47.27,45.13c-9.33,9.78-28.68,11.92-34.79-2.56C92.08,124.6,94.17,108.4,98.62,94.05z"/>
<linearGradient id="SVGID_00000139286001873957912450000017620971682175231676_" gradientUnits="userSpaceOnUse" x1="135.9219" y1="152.0934" x2="257.1635" y2="8.1919" gradientTransform="matrix(0.9983 0.0591 -0.0591 0.9983 3.5775 -11.233)">
	<stop  offset="0.0689" style="stop-color:#D47BF9"/>
	<stop  offset="0.417" style="stop-color:#AD58E9"/>
	<stop  offset="0.7872" style="stop-color:#8837DA"/>
</linearGradient>
<path style="fill:url(#SVGID_00000139286001873957912450000017620971682175231676_);" d="M196.81,114.32
	c-4.3-18.91-23.35-20.23-36.77-5.24c-6.24,6.98-20.07,31.64-30.06,37.9c-23.59,14.77-39-5.81-36.24-34.14
	c1.62-16.6,2.75-29.28,12.21-49.1c11.94-25.02,23.65-42.78,45.7-53.39c55.67-26.79,101.33,19.73,97.87,78.92
	c-2.16,36.86-17.8,89.68-60.96,115.2c-24.01,14.2-28.79-6.44-26.67-10.02c1.91-3.22,16.24-16.85,23.99-34.54
	C193.63,142.25,198.03,119.7,196.81,114.32z"/>
</svg>
