<svg width="90" height="63" viewBox="0 0 118 63" fill="none" xmlns="http://www.w3.org/2000/svg">
<path d="M65.081 17.1524C80.305 12.2226 94.9412 23.742 94.991 39.6612C95.011 46.8608 94.9977 54.1104 94.9512 61.41C94.9512 61.7567 94.7752 61.93 94.4231 61.93L78.2924 61.96C77.9204 61.96 77.7345 61.77 77.7345 61.39C77.7013 54.777 77.6979 48.1907 77.7245 41.6311C77.7311 38.4712 77.678 36.658 77.5651 36.1914C76.5488 31.9116 69.704 31.0316 67.3427 34.4715C66.6319 35.5047 66.2865 37.1913 66.3065 39.5312C66.353 46.8441 66.3496 54.1471 66.2965 61.44C66.2899 61.78 66.1138 61.9533 65.7684 61.96L49.6676 62C49.5791 62 49.4915 61.9826 49.4098 61.9488C49.3282 61.915 49.2541 61.8655 49.192 61.8031C49.1299 61.7408 49.0809 61.6668 49.048 61.5856C49.015 61.5044 48.9988 61.4175 49.0001 61.33C49.0798 55.3437 49.113 49.3973 49.0997 43.491C49.0864 37.7779 49.5381 33.6015 50.4547 30.9616C52.8061 24.1487 57.6815 19.5456 65.081 17.1524Z" fill="#9B48E0"/>
<path d="M108.103 19.52C113.493 19.52 117.863 15.1503 117.863 9.76C117.863 4.3697 113.493 0 108.103 0C102.712 0 98.3426 4.3697 98.3426 9.76C98.3426 15.1503 102.712 19.52 108.103 19.52Z" fill="#9B48E0"/>
<path d="M116.113 21.73H100.033C99.7068 21.73 99.4426 21.9942 99.4426 22.32V61.86C99.4426 62.1859 99.7068 62.45 100.033 62.45H116.113C116.438 62.45 116.703 62.1859 116.703 61.86V22.32C116.703 21.9942 116.438 21.73 116.113 21.73Z" fill="#9B48E0"/>
<path d="M17.3296 39.9662C17.3196 42.8358 18.8937 45.3254 22.1614 45.6353C27.5909 46.1653 28.7465 42.7658 28.7665 37.9865C28.7864 30.8543 28.7698 23.7288 28.7166 16.6099C28.7166 16.21 28.9159 16.01 29.3144 16.01L45.4037 16.05C45.7756 16.0567 45.9616 16.2433 45.9616 16.6099C46.0213 24.8619 46.0114 33.0673 45.9317 41.226C45.8719 47.2951 41.9368 53.6341 36.9057 57.2635C29.5269 62.596 21.7031 63.4259 13.4343 59.7531C6.5204 56.6736 0.99126 49.9547 0.264004 42.4958C-0.0880013 38.8831 -0.0880013 30.1944 0.264004 16.4299C0.277287 16.1433 0.42672 16 0.712309 16L16.7717 16.1C17.1304 16.1 17.3097 16.28 17.3097 16.6399C17.3495 24.4453 17.3562 32.2208 17.3296 39.9662Z" fill="#9B48E0"/>
</svg>
